<svg width="431" height="63" fill="none" xmlns="http://www.w3.org/2000/svg"><path d="m1 21 .6-5a29.7 29.7 0 0 1 9.2-.7H13v3.3c1-.8 2.3-1.6 3.9-2.2 1.6-.6 3-1 4.3-1 5 0 8.4 1.3 10 3.8 1.1-1 2.6-2 4.4-2.6a16.6 16.6 0 0 1 12.5.3c1.8.9 3 2.5 3.7 4.7C52.5 24 53 27 53 31v10.7c1.7.7 3 1.4 3.6 2.2L56 49H40.7l-.7-5c.6-1 1.8-1.7 3.7-2.3V28.6c0-2.4-.4-4-1-4.8-.5-.6-1.3-1-2.5-1.2-1 0-2.3 0-3.6.4-1.3.3-2.4 1-3.5 1.8.3 1.6.4 3.6.4 6.2v10.7c1.7.7 3 1.4 3.6 2.2l-.6 5.1H21.3l-.7-5c.6-1 1.8-1.7 3.7-2.3V28.6c0-2.4-.4-4-1-4.8-.5-.6-1.3-1-2.5-1.1a9.5 9.5 0 0 0-7 2v17c1.7.6 3 1.4 3.7 2.2l-.7 5.1H1.6L1 44c.6-1 1.8-1.7 3.6-2.3V23.3A8.2 8.2 0 0 1 1 21.1Zm73.6 28.5c-5.3 0-9.2-1.4-11.9-4.2-2.7-2.8-4-7-4-12.3 0-3.2.5-6 1.4-8.4a13 13 0 0 1 3.8-5.4c3-2.5 6.6-3.7 10.7-3.7 2.7 0 5 .4 7 1.3 1.8 1 3.2 2.4 4.2 4.5s1.5 5 1.5 8.6c0 3.1-1.6 4.7-4.7 4.7H68.3c.1 2.8.9 4.8 2.1 5.9 1.3 1.1 3.3 1.7 6 1.7a17.2 17.2 0 0 0 7.2-1.6l1-.5 2 5.3-1.2 1.1c-.3.3-1 .7-2 1.2a22.1 22.1 0 0 1-8.8 1.8Zm-6.3-20.4 10.5-.4.1-2.2c0-.9-.3-1.8-1-2.8-.8-1-2-1.5-3.7-1.5-1.8 0-3.1.5-4 1.6-1 1-1.6 2.8-1.9 5.3Zm35.6-7.7c-3 0-4.4.9-4.4 2.6 0 1.6 1.5 2.8 4.6 3.6l5.2 1.4c5.3 1.4 8 4.5 8 9.3 0 3.3-1.1 6-3.4 8-1.2 1.1-2.7 1.9-4.7 2.4s-4 .8-6.3.8-4.4-.1-6.5-.5c-2.1-.3-3.9-.9-5.3-1.6l-.1-.7V46c0-2.5.5-4.6 1.4-6.6H98c.6 1.1 1 2.2 1.1 3.3.9.3 2.1.4 3.8.4 3.9 0 5.8-1 5.8-3.3 0-.7-.2-1.3-.8-1.7-.5-.5-1.6-1-3-1.4l-5.3-1.5c-2.7-.7-4.8-1.9-6.3-3.3-1.5-1.5-2.2-3.7-2.2-6.6 0-2.9 1.2-5.2 3.5-7 1.2-1 2.6-1.7 4.4-2.1a29.5 29.5 0 0 1 16.6 1.2V18.7c0 2.3-.4 4.4-1.4 6.4h-5.4c-.6-1.1-1-2.2-1.1-3.2a16 16 0 0 0-3.7-.5Zm29.7 0c-2.9 0-4.3.9-4.3 2.6 0 1.6 1.5 2.8 4.6 3.6L139 29c5.4 1.4 8.1 4.5 8.1 9.3 0 3.3-1.2 6-3.4 8-1.2 1.1-2.8 1.9-4.7 2.4a34.2 34.2 0 0 1-12.8.3c-2.2-.3-4-.9-5.4-1.6V46c0-2.5.5-4.6 1.4-6.6h5.5c.6 1.1 1 2.2 1.1 3.3.9.3 2.1.4 3.8.4 3.9 0 5.8-1 5.8-3.3 0-.7-.3-1.3-.8-1.7-.5-.5-1.6-1-3.1-1.4l-5.2-1.5c-2.7-.7-4.8-1.9-6.3-3.3-1.5-1.5-2.2-3.7-2.2-6.6 0-2.9 1.1-5.2 3.5-7 1.1-1 2.6-1.7 4.3-2.1a29.5 29.5 0 0 1 16.6 1.2v.6l.1.7c0 2.3-.5 4.4-1.4 6.4h-5.4c-.6-1.1-1-2.2-1.2-3.2a16 16 0 0 0-3.7-.5Zm18-.5v-2.1c4.1-2.2 8.5-3.3 13.2-3.3 4.7 0 8.1.9 10.1 2.7 2 1.7 3.1 4.7 3.1 8.8v14l3.6 1.2v5.7a23 23 0 0 1-9.6 1.6l-1.1-4.1c-2 2.7-5.3 4.1-10.3 4.1-2 0-3.7-.4-5.4-1.1A9 9 0 0 1 150 40c0-3 1-5.3 3-7 1.9-1.7 4.8-2.5 8.7-2.5h7.2v-3.2c0-3.5-1.8-5.2-5.5-5.2a11 11 0 0 0-3.4.4c0 2-.3 3.3-.7 4.3h-6.5c-.8-1.5-1.2-3.5-1.2-5.9Zm11.8 21.9c2.3 0 4-.7 5.4-2v-5.4H164c-3.1 0-4.7 1.2-4.7 3.6 0 1.1.3 2 1 2.7.7.7 1.7 1 3 1ZM199.2 56c3.9 0 5.8-2.4 5.8-7v-3c-2.1 1.3-4.8 2-8 2-4.2 0-7.4-1.2-9.6-3.6-2.2-2.4-3.3-6.5-3.3-12 0-11.3 5.1-17 15.4-17 2.6 0 5 .7 7.4 1.8a2 2 0 0 1 2-1.2h5.4v32.5c0 4.8-1.2 8.4-3.6 10.7-2.4 2.4-6.1 3.5-11.1 3.5a37.5 37.5 0 0 1-10.7-1.6c-1.6-.4-3-1-3.9-1.6v-1.2c0-2.4.5-4.7 1.6-7h5.8c.5 1 .9 2.2 1.1 3.7 1.7.7 3.6 1 5.7 1Zm-6-24c0 3.2.4 5.5 1.3 6.8.7 1 1.6 1.5 2.8 1.8A10.4 10.4 0 0 0 205 39V23.3c-1.7-.7-3.6-1-5.7-1-4 0-6.1 3.2-6.1 9.6Zm42 17.5c-5.3 0-9.3-1.4-12-4.2-2.6-2.8-4-7-4-12.3 0-3.2.5-6 1.4-8.4 1-2.3 2.2-4.2 3.8-5.4 3-2.5 6.7-3.7 10.8-3.7 2.7 0 5 .4 6.9 1.3 1.9 1 3.3 2.4 4.3 4.5s1.4 5 1.4 8.6c0 3.1-1.5 4.7-4.7 4.7h-14.3c.2 2.8 1 4.8 2.2 5.9 1.2 1.1 3.2 1.7 6 1.7a17.2 17.2 0 0 0 7.2-1.6l1-.5 1.9 5.3-1.1 1.1c-.4.3-1 .7-2.1 1.2a22.1 22.1 0 0 1-8.7 1.8Zm-6.3-20.4 10.4-.4.2-2.2c0-.9-.4-1.8-1.1-2.8-.7-1-2-1.5-3.7-1.5-1.7 0-3 .5-4 1.6-.9 1-1.5 2.8-1.8 5.3Z" fill="#fff"/><path d="M249.6 35v-6.3c3.3 0 5.9-.6 7.7-1.8 1.9-1.1 2.8-2.9 2.8-5.2 0-1-.2-2.8-.6-5.2-.4-2.3-.6-4-.6-5.2 0-3.3.9-5.9 2.7-7.7a9 9 0 0 1 6.6-2.6c3.8 0 6.7.6 8.6 1.8l-.6 5.3c-1.3.5-3 .8-5.2.8-1.7 0-2.5 1.6-2.5 5 0 1 .1 2.6.4 4.5l.5 4a8.8 8.8 0 0 1-7.4 9v.7c2 .3 3.7 1.3 5.1 2.8a8.9 8.9 0 0 1 2.3 6.4l-.5 4a31 31 0 0 0-.4 4.6c0 3.3.8 5 2.5 5 2.2 0 4 .2 5.2.8l.6 5.3c-1.9 1.2-4.8 1.8-8.6 1.8a9 9 0 0 1-6.6-2.7c-1.8-1.8-2.7-4.3-2.7-7.6 0-1.1.2-3 .6-5.3.4-2.4.6-4 .6-5.1 0-2.4-1-4.1-2.8-5.3a14.4 14.4 0 0 0-7.7-1.7Zm29.2-14 .7-5a29.7 29.7 0 0 1 9.2-.7h2.2v3.3c3-2 6-3.1 9.4-3.1 4.4 0 7.6 1.2 9.5 3.8 2 2.4 3 6.6 3 12.5 0 3.1-.4 5.9-1.3 8.2-1 2.4-2.2 4.3-3.8 5.6a16 16 0 0 1-10.8 4c-1.9 0-3.6-.3-5.2-.6v5.7c2.6.7 4.3 1.5 5 2.4l-.6 5.1h-16.6l-.7-5c.6-.9 1.8-1.6 3.7-2.3V23.3a8.1 8.1 0 0 1-3.7-2.2Zm17.4 21.8c2.2 0 4-1 5.2-3 1.3-2 2-4.6 2-8 0-3.5-.4-5.9-1.1-7.2-.7-1.2-2-1.9-3.9-1.9-2.8 0-5 .7-6.7 2v17.6c1.4.3 2.9.5 4.5.5ZM316.4 21l.6-5.1a30.6 30.6 0 0 1 9.8-.8c1 0 1.7 0 2.4.2v26.3c1.8.6 3 1.4 3.7 2.2l-.7 5.1H317l-.6-5c.6-1 1.8-1.7 3.6-2.3V23.3a8.1 8.1 0 0 1-3.6-2.2Zm18.4 0 .6-5.1a29.7 29.7 0 0 1 9.2-.7h2.2v3.3c3-2 6.1-3.1 9.4-3.1 4.4 0 7.6 1.2 9.6 3.8 2 2.4 3 6.6 3 12.5 0 3.1-.5 5.9-1.4 8.2-1 2.4-2.2 4.3-3.8 5.6a16 16 0 0 1-10.8 4c-1.8 0-3.6-.3-5.2-.6v5.7c2.7.7 4.3 1.5 5 2.4l-.6 5.1h-16.6l-.6-5c.5-.9 1.8-1.6 3.6-2.3V23.3a8.2 8.2 0 0 1-3.6-2.2Zm17.4 21.7c2.1 0 3.9-1 5.1-3 1.3-2 2-4.6 2-8 0-3.5-.4-5.9-1-7.2-.8-1.2-2-1.9-4-1.9-2.8 0-5 .7-6.7 2v17.6c1.4.3 2.9.5 4.6.5Zm35.9 6.7c-5.3 0-9.3-1.4-12-4.2-2.6-2.8-4-7-4-12.3 0-3.2.5-6 1.4-8.4a13 13 0 0 1 3.8-5.4c3-2.5 6.7-3.7 10.8-3.7 2.7 0 5 .4 6.9 1.3 1.8 1 3.3 2.4 4.2 4.5 1 2.1 1.5 5 1.5 8.6 0 3.1-1.5 4.7-4.7 4.7h-14.3c.2 2.8.9 4.8 2.1 5.9 1.3 1.1 3.3 1.7 6 1.7a17.2 17.2 0 0 0 7.3-1.6l1-.5 1.9 5.3-1.1 1.1c-.4.3-1 .7-2.1 1.2a22.1 22.1 0 0 1-8.7 1.8Zm-6.3-20.4 10.4-.4.1-2.2c0-.9-.3-1.8-1-2.8-.7-1-2-1.5-3.7-1.5-1.7 0-3 .5-4 1.6-1 1-1.5 2.8-1.8 5.3Zm48.8-.4V35c-3.2 0-5.8.6-7.6 1.7a5.8 5.8 0 0 0-2.8 5.3c0 1 .2 2.8.6 5.1.4 2.4.6 4.2.6 5.3 0 3.3-1 5.8-2.7 7.6a9 9 0 0 1-6.6 2.7c-3.9 0-6.7-.6-8.7-1.8l.7-5.3c1.2-.6 3-.8 5.2-.8 1.7 0 2.5-1.7 2.5-5a31 31 0 0 0-.4-4.6c-.4-1.8-.5-3.2-.5-4a8.9 8.9 0 0 1 7.4-9.2v-.5a9 9 0 0 1-5.2-2.8 8.8 8.8 0 0 1-2.2-6.3c0-.9.1-2.3.5-4 .3-2 .4-3.5.4-4.6 0-3.4-.8-5-2.5-5-2.2 0-4-.3-5.2-.8l-.7-5.3c2-1.2 4.8-1.8 8.7-1.8a9 9 0 0 1 6.6 2.6c1.8 1.8 2.7 4.4 2.7 7.7 0 1-.2 2.8-.6 5.2-.4 2.3-.6 4-.6 5.2 0 2.3 1 4 2.8 5.2 1.8 1.2 4.4 1.8 7.6 1.8Z" fill="#3D65F1"/></svg>
